<svg width="80" height="80" viewBox="0 0 80 80" fill="none" xmlns="http://www.w3.org/2000/svg">
<circle cx="40" cy="40" r="38.5" fill="#DADADA" fill-opacity="0.35" stroke="#DADADA" stroke-width="3" stroke-dasharray="6 6"/>
<path d="M40 20C40.663 20 41.2989 20.2634 41.7678 20.7322C42.2366 21.2011 42.5 21.837 42.5 22.5V37.5H57.5C58.163 37.5 58.7989 37.7634 59.2678 38.2322C59.7366 38.7011 60 39.337 60 40C60 40.663 59.7366 41.2989 59.2678 41.7678C58.7989 42.2366 58.163 42.5 57.5 42.5H42.5V57.5C42.5 58.163 42.2366 58.7989 41.7678 59.2678C41.2989 59.7366 40.663 60 40 60C39.337 60 38.7011 59.7366 38.2322 59.2678C37.7634 58.7989 37.5 58.163 37.5 57.5V42.5H22.5C21.837 42.5 21.2011 42.2366 20.7322 41.7678C20.2634 41.2989 20 40.663 20 40C20 39.337 20.2634 38.7011 20.7322 38.2322C21.2011 37.7634 21.837 37.5 22.5 37.5H37.5V22.5C37.5 21.837 37.7634 21.2011 38.2322 20.7322C38.7011 20.2634 39.337 20 40 20Z" fill="#DADADA"/>
</svg>
