<svg width="500" height="500" viewBox="0 0 500 500" fill="none" xmlns="http://www.w3.org/2000/svg">
<rect width="500" height="500" rx="45" fill="#FFFEFB"/>
<g filter="url(#filter0_d_66_738)">
<path d="M389.637 435.948C396.458 435.948 400.287 431.042 400.287 423.623V388.8H413.689C441.332 388.8 460 369.893 460 341.173V237.423C460 208.584 441.332 191.591 413.689 191.591H206.549C177.829 191.591 160.086 209.334 160.086 238.053V342.414C160.086 371.015 177.829 388.877 206.549 388.877L332.676 388.8L375.875 428.29C381.499 433.555 384.85 435.948 389.637 435.948Z" fill="#363636"/>
<path d="M415.12 286.88C415.12 281.357 419.597 276.88 425.12 276.88H426.925C432.448 276.88 436.925 281.357 436.925 286.88V347.426C436.925 352.949 432.448 357.426 426.925 357.426H423.204C419.19 357.426 415.936 354.172 415.936 350.157V343.42C415.936 343.127 415.698 342.889 415.404 342.889C415.188 342.889 414.993 343.021 414.909 343.221C412.974 347.861 409.954 351.558 405.849 354.311C401.646 357.08 396.578 358.464 390.644 358.464C385.304 358.464 380.582 357.253 376.478 354.83C372.374 352.358 369.16 348.847 366.837 344.298C364.562 339.7 363.425 334.31 363.425 328.13V286.88C363.425 281.357 367.902 276.88 373.425 276.88H375.378C380.901 276.88 385.378 281.357 385.378 286.88V324.347C385.378 327.462 385.947 330.206 387.084 332.58C388.222 334.904 389.853 336.708 391.979 337.994C394.155 339.23 396.627 339.848 399.396 339.848C402.214 339.848 404.81 339.205 407.184 337.92C409.607 336.634 411.535 334.706 412.969 332.135C414.403 329.563 415.12 326.547 415.12 323.086V286.88Z" fill="#FFFEFB"/>
<path d="M300.234 358.686C294.053 358.686 288.466 357.079 283.472 353.866C278.528 350.652 274.621 345.93 271.754 339.7C268.935 333.42 267.526 325.929 267.526 317.227C267.526 308.327 268.985 300.761 271.902 294.531C274.819 288.301 278.725 283.629 283.621 280.514C288.565 277.399 294.103 275.841 300.234 275.841C304.486 275.841 308.145 276.558 311.211 277.992C314.276 279.376 316.699 281.107 318.479 283.184C320.259 285.26 321.792 287.659 323.078 290.378H323.745V260.031C323.745 254.508 328.222 250.031 333.745 250.031H335.699C341.222 250.031 345.699 254.508 345.699 260.031V347.426C345.699 352.948 341.222 357.426 335.699 357.426H334.116C328.593 357.426 324.116 352.948 324.116 347.426V344.595H323.078C321.743 347.265 320.16 349.589 318.331 351.566C316.551 353.544 314.128 355.225 311.063 356.61C307.997 357.994 304.387 358.686 300.234 358.686ZM307.057 341.183C310.667 341.183 313.757 340.194 316.328 338.216C318.949 336.238 320.927 333.42 322.262 329.761C323.646 326.102 324.339 321.875 324.339 317.078C324.339 312.233 323.671 308.03 322.336 304.47C321.001 300.91 319.023 298.19 316.403 296.311C313.831 294.383 310.716 293.419 307.057 293.419C303.399 293.419 300.284 294.408 297.712 296.386C295.141 298.314 293.188 301.058 291.853 304.618C290.568 308.178 289.925 312.332 289.925 317.078C289.925 321.825 290.568 326.028 291.853 329.687C293.188 333.296 295.141 336.115 297.712 338.142C300.284 340.169 303.399 341.183 307.057 341.183Z" fill="#FFFEFB"/>
<path d="M219.91 358.983C211.801 358.983 204.73 357.302 198.698 353.939C192.715 350.577 188.092 345.781 184.829 339.551C181.615 333.321 180.008 326.003 180.008 317.597C180.008 309.291 181.615 301.997 184.829 295.718C188.092 289.389 192.666 284.494 198.55 281.033C204.434 277.572 211.257 275.841 219.02 275.841C226.288 275.841 232.766 277.374 238.452 280.439C244.138 283.455 248.613 288.029 251.876 294.16C255.14 300.292 256.771 307.782 256.771 316.633C256.771 320.033 254.015 322.789 250.615 322.789H188.982V309.068H227.036C232.03 309.068 236.396 304.732 233.928 300.39C232.494 297.819 230.516 295.817 227.994 294.383C225.473 292.949 222.605 292.232 219.391 292.232C215.979 292.232 212.938 293.023 210.268 294.605C207.598 296.138 205.497 298.264 203.964 300.984C202.481 303.703 201.714 305.854 201.665 309.068V322.789C201.665 326.794 202.431 330.305 203.964 333.321C205.497 336.337 207.648 338.636 210.417 340.218C213.235 341.801 216.498 342.592 220.207 342.592C222.679 342.592 224.929 342.246 226.956 341.553C228.983 340.812 230.689 339.872 232.074 338.735C234.577 336.663 237.413 334.582 240.663 334.582H243.908C250.266 334.582 255.038 340.661 251.219 345.744C250.772 346.339 250.299 346.92 249.8 347.487C246.586 351.146 242.408 353.989 237.265 356.016C232.172 357.994 226.387 358.983 219.91 358.983Z" fill="#FFFEFB"/>
<path d="M110.363 308.357C103.542 308.357 99.7129 303.45 99.7129 296.031V261.209H86.3103C58.6674 261.209 39.9998 242.302 39.9998 213.582V109.832C39.9998 80.9924 58.6674 64 86.3103 64H247.141C275.86 64 293.451 81.1124 293.451 109.832V213.582C293.451 242.182 275.86 261.209 247.141 261.209H167.324L124.124 300.698C118.5 305.963 115.15 308.357 110.363 308.357Z" fill="#2B2B2B"/>
<path d="M223.551 219.332C215.069 219.332 207.661 217.499 201.326 213.835C194.992 210.17 190.123 205.013 186.72 198.364C183.317 191.715 181.615 184.045 181.615 175.355C181.615 166.559 183.317 158.863 186.72 152.267C190.123 145.618 194.992 140.461 201.326 136.796C207.661 133.131 215.069 131.299 223.551 131.299C231.979 131.299 239.361 133.131 245.696 136.796C252.083 140.461 256.952 145.618 260.303 152.267C263.653 158.863 265.329 166.559 265.329 175.355C265.329 184.045 263.653 191.715 260.303 198.364C256.952 205.013 252.083 210.17 245.696 213.835C239.361 217.499 231.979 219.332 223.551 219.332ZM223.708 201.348C227.582 201.348 230.854 200.223 233.524 197.971C236.246 195.72 238.288 192.631 239.649 188.705C241.01 184.726 241.691 180.223 241.691 175.198C241.691 170.119 241.01 165.617 239.649 161.69C238.288 157.764 236.246 154.675 233.524 152.424C230.854 150.173 227.582 149.047 223.708 149.047C219.729 149.047 216.352 150.173 213.577 152.424C210.802 154.675 208.708 157.764 207.295 161.69C205.881 165.564 205.174 170.067 205.174 175.198C205.174 180.276 205.881 184.778 207.295 188.705C208.708 192.631 210.802 195.72 213.577 197.971C216.352 200.223 219.729 201.348 223.708 201.348Z" fill="#FFFEFB"/>
<path d="M153.975 143.629C148.978 143.629 145.015 139.757 142.645 135.359C142.162 134.462 141.619 133.606 141.015 132.792C138.816 129.703 135.937 127.347 132.377 125.724C128.817 124.101 124.864 123.289 120.519 123.289C114.603 123.289 109.42 124.782 104.97 127.766C100.572 130.698 97.1427 134.991 94.6821 140.645C92.2215 146.247 90.9912 152.974 90.9912 160.827C90.9912 168.89 92.2215 175.722 94.6821 181.324C97.1427 186.873 100.572 191.114 104.97 194.045C109.42 196.925 114.524 198.365 120.283 198.365C124.628 198.365 128.529 197.579 131.984 196.009C135.492 194.438 138.397 192.213 140.701 189.334C141.336 188.526 141.911 187.676 142.426 186.785C144.864 182.569 148.815 178.924 153.685 178.972L157.992 179.014C163.967 179.073 168.64 184.41 166.41 189.954C165.153 193.079 163.52 196.091 161.512 198.993C157.323 205.118 151.669 210.039 144.549 213.757C137.429 217.421 129.236 219.254 119.969 219.254C109.812 219.254 100.729 216.95 92.7189 212.343C84.7087 207.684 78.4263 200.956 73.8715 192.161C69.3691 183.313 67.1179 172.868 67.1179 160.827C67.1179 148.681 69.3953 138.21 73.9501 129.415C78.5572 120.619 84.8396 113.918 92.7974 109.311C100.807 104.704 109.865 102.4 119.969 102.4C128.712 102.4 136.617 104.023 143.685 107.269C150.753 110.515 156.486 115.253 160.883 121.483C163.294 124.83 165.213 128.529 166.64 132.582C168.642 138.267 163.872 143.629 157.845 143.629H153.975Z" fill="#FFFEFB"/>
</g>
<defs>
<filter id="filter0_d_66_738" x="35.9998" y="60" width="428" height="379.948" filterUnits="userSpaceOnUse" color-interpolation-filters="sRGB">
<feFlood flood-opacity="0" result="BackgroundImageFix"/>
<feColorMatrix in="SourceAlpha" type="matrix" values="0 0 0 0 0 0 0 0 0 0 0 0 0 0 0 0 0 0 127 0" result="hardAlpha"/>
<feOffset/>
<feGaussianBlur stdDeviation="2"/>
<feComposite in2="hardAlpha" operator="out"/>
<feColorMatrix type="matrix" values="0 0 0 0 0.168627 0 0 0 0 0.168627 0 0 0 0 0.168627 0 0 0 1 0"/>
<feBlend mode="normal" in2="BackgroundImageFix" result="effect1_dropShadow_66_738"/>
<feBlend mode="normal" in="SourceGraphic" in2="effect1_dropShadow_66_738" result="shape"/>
</filter>
</defs>
</svg>
