<svg width="500" height="500" viewBox="0 0 500 500" fill="none" xmlns="http://www.w3.org/2000/svg">
<rect width="500" height="500" rx="45" fill="#2B2B2B"/>
<g filter="url(#filter0_d_66_752)">
<path d="M389.637 435.949C396.458 435.949 400.287 431.043 400.287 423.624V388.801H413.689C441.332 388.801 460 369.894 460 341.174V237.424C460 208.585 441.332 191.592 413.689 191.592H206.549C177.829 191.592 160.086 209.335 160.086 238.054V342.415C160.086 371.016 177.829 388.878 206.549 388.878L332.676 388.801L375.875 428.291C381.499 433.556 384.85 435.949 389.637 435.949Z" fill="#F3F2EF"/>
<path d="M415.118 286.88C415.118 281.357 419.595 276.88 425.118 276.88H426.923C432.446 276.88 436.923 281.357 436.923 286.88V347.426C436.923 352.949 432.446 357.426 426.923 357.426H423.202C419.188 357.426 415.934 354.172 415.934 350.158V343.421C415.934 343.127 415.696 342.89 415.402 342.89C415.186 342.89 414.991 343.022 414.907 343.222C412.972 347.862 409.952 351.558 405.847 354.311C401.644 357.08 396.576 358.465 390.642 358.465C385.302 358.465 380.58 357.253 376.476 354.83C372.372 352.358 369.158 348.848 366.835 344.299C364.56 339.7 363.423 334.311 363.423 328.13V286.88C363.423 281.357 367.9 276.88 373.423 276.88H375.376C380.899 276.88 385.376 281.357 385.376 286.88V324.348C385.376 327.463 385.945 330.207 387.082 332.58C388.22 334.904 389.851 336.709 391.977 337.994C394.153 339.231 396.625 339.849 399.394 339.849C402.213 339.849 404.808 339.206 407.182 337.92C409.605 336.635 411.533 334.706 412.967 332.135C414.401 329.564 415.118 326.548 415.118 323.087V286.88Z" fill="#2B2B2B"/>
<path d="M300.232 358.687C294.051 358.687 288.464 357.08 283.47 353.866C278.526 350.652 274.619 345.93 271.752 339.7C268.933 333.421 267.524 325.93 267.524 317.228C267.524 308.327 268.983 300.762 271.9 294.532C274.817 288.302 278.723 283.63 283.618 280.515C288.563 277.399 294.101 275.842 300.232 275.842C304.484 275.842 308.143 276.559 311.209 277.993C314.274 279.377 316.697 281.108 318.477 283.185C320.257 285.261 321.79 287.659 323.076 290.379H323.743V260.032C323.743 254.509 328.22 250.032 333.743 250.032H335.697C341.22 250.032 345.697 254.509 345.697 260.032V347.426C345.697 352.949 341.22 357.426 335.697 357.426H334.114C328.591 357.426 324.114 352.949 324.114 347.426V344.595H323.076C321.741 347.265 320.158 349.589 318.329 351.567C316.549 353.545 314.126 355.226 311.06 356.611C307.995 357.995 304.385 358.687 300.232 358.687ZM307.055 341.184C310.665 341.184 313.755 340.195 316.326 338.217C318.947 336.239 320.925 333.421 322.26 329.762C323.644 326.103 324.336 321.875 324.336 317.079C324.336 312.234 323.669 308.031 322.334 304.471C320.999 300.911 319.021 298.191 316.401 296.312C313.829 294.384 310.714 293.42 307.055 293.42C303.396 293.42 300.281 294.409 297.71 296.386C295.139 298.315 293.186 301.059 291.851 304.619C290.565 308.179 289.923 312.332 289.923 317.079C289.923 321.826 290.565 326.029 291.851 329.688C293.186 333.297 295.139 336.116 297.71 338.143C300.281 340.17 303.396 341.184 307.055 341.184Z" fill="#2B2B2B"/>
<path d="M219.908 358.984C211.799 358.984 204.729 357.303 198.696 353.94C192.714 350.578 188.09 345.782 184.827 339.552C181.613 333.322 180.006 326.004 180.006 317.598C180.006 309.292 181.613 301.998 184.827 295.719C188.09 289.39 192.664 284.495 198.548 281.034C204.432 277.573 211.256 275.842 219.018 275.842C226.287 275.842 232.764 277.375 238.45 280.44C244.137 283.457 248.611 288.03 251.875 294.161C255.138 300.293 256.77 307.784 256.77 316.634C256.77 320.034 254.014 322.79 250.614 322.79H188.981V309.069H227.034C232.028 309.069 236.395 304.733 233.926 300.391C232.492 297.82 230.514 295.818 227.993 294.384C225.471 292.95 222.603 292.233 219.389 292.233C215.978 292.233 212.937 293.024 210.267 294.606C207.597 296.139 205.495 298.265 203.962 300.985C202.479 303.704 201.713 305.855 201.663 309.069V322.79C201.663 326.795 202.43 330.306 203.962 333.322C205.495 336.338 207.646 338.637 210.415 340.219C213.233 341.802 216.497 342.593 220.205 342.593C222.677 342.593 224.927 342.247 226.954 341.555C228.982 340.813 230.687 339.873 232.072 338.736C234.576 336.664 237.411 334.583 240.661 334.583H243.907C250.265 334.583 255.037 340.662 251.217 345.745C250.77 346.34 250.297 346.921 249.798 347.488C246.584 351.147 242.406 353.99 237.264 356.017C232.171 357.995 226.386 358.984 219.908 358.984Z" fill="#2B2B2B"/>
<path d="M110.363 308.357C103.542 308.357 99.713 303.45 99.713 296.031V261.209H86.3105C58.6676 261.209 40 242.302 40 213.582V109.832C40 80.9924 58.6676 64 86.3105 64H247.141C275.861 64 293.451 81.1123 293.451 109.832V213.582C293.451 242.182 275.861 261.209 247.141 261.209H167.324L124.125 300.698C118.501 305.963 115.15 308.357 110.363 308.357Z" fill="#FFFEFB"/>
<path d="M223.55 219.332C215.069 219.332 207.661 217.499 201.326 213.835C194.991 210.17 190.123 205.013 186.72 198.364C183.317 191.715 181.615 184.045 181.615 175.355C181.615 166.559 183.317 158.863 186.72 152.267C190.123 145.618 194.991 140.461 201.326 136.796C207.661 133.131 215.069 131.299 223.55 131.299C231.979 131.299 239.361 133.131 245.696 136.796C252.083 140.461 256.952 145.618 260.303 152.267C263.653 158.863 265.329 166.559 265.329 175.355C265.329 184.045 263.653 191.715 260.303 198.364C256.952 205.013 252.083 210.17 245.696 213.835C239.361 217.499 231.979 219.332 223.55 219.332ZM223.707 201.348C227.582 201.348 230.854 200.223 233.524 197.971C236.246 195.72 238.288 192.631 239.649 188.705C241.01 184.726 241.691 180.224 241.691 175.198C241.691 170.119 241.01 165.617 239.649 161.69C238.288 157.764 236.246 154.675 233.524 152.424C230.854 150.173 227.582 149.047 223.707 149.047C219.729 149.047 216.352 150.173 213.577 152.424C210.802 154.675 208.708 157.764 207.295 161.69C205.881 165.565 205.174 170.067 205.174 175.198C205.174 180.276 205.881 184.778 207.295 188.705C208.708 192.631 210.802 195.72 213.577 197.971C216.352 200.223 219.729 201.348 223.707 201.348Z" fill="#2B2B2B"/>
<path d="M153.975 143.628C148.978 143.628 145.015 139.757 142.645 135.358C142.162 134.461 141.618 133.605 141.015 132.791C138.816 129.702 135.937 127.346 132.376 125.723C128.816 124.1 124.864 123.289 120.518 123.289C114.602 123.289 109.419 124.781 104.969 127.765C100.572 130.697 97.1425 134.99 94.6819 140.644C92.2212 146.246 90.9909 152.973 90.9909 160.826C90.9909 168.889 92.2212 175.721 94.6819 181.323C97.1425 186.872 100.572 191.113 104.969 194.045C109.419 196.924 114.524 198.364 120.283 198.364C124.628 198.364 128.528 197.579 131.984 196.008C135.492 194.438 138.397 192.212 140.701 189.333C141.335 188.525 141.91 187.676 142.426 186.784C144.864 182.569 148.815 178.924 153.685 178.971L157.992 179.014C163.967 179.073 168.64 184.41 166.41 189.953C165.153 193.078 163.52 196.091 161.511 198.992C157.323 205.118 151.669 210.039 144.549 213.756C137.429 217.421 129.235 219.253 119.969 219.253C109.812 219.253 100.729 216.95 92.7186 212.342C84.7085 207.683 78.4261 200.956 73.8713 192.16C69.3689 183.312 67.1177 172.868 67.1177 160.826C67.1177 148.68 69.3951 138.21 73.9498 129.414C78.5569 120.619 84.8394 113.918 92.7971 109.311C100.807 104.703 109.864 102.4 119.969 102.4C128.712 102.4 136.617 104.023 143.685 107.269C150.753 110.515 156.485 115.253 160.883 121.483C163.293 124.829 165.212 128.528 166.64 132.581C168.642 138.266 163.872 143.628 157.845 143.628H153.975Z" fill="#2B2B2B"/>
</g>
<defs>
<filter id="filter0_d_66_752" x="36" y="60" width="428" height="379.949" filterUnits="userSpaceOnUse" color-interpolation-filters="sRGB">
<feFlood flood-opacity="0" result="BackgroundImageFix"/>
<feColorMatrix in="SourceAlpha" type="matrix" values="0 0 0 0 0 0 0 0 0 0 0 0 0 0 0 0 0 0 127 0" result="hardAlpha"/>
<feOffset/>
<feGaussianBlur stdDeviation="2"/>
<feComposite in2="hardAlpha" operator="out"/>
<feColorMatrix type="matrix" values="0 0 0 0 1 0 0 0 0 0.994678 0 0 0 0 0.984033 0 0 0 1 0"/>
<feBlend mode="normal" in2="BackgroundImageFix" result="effect1_dropShadow_66_752"/>
<feBlend mode="normal" in="SourceGraphic" in2="effect1_dropShadow_66_752" result="shape"/>
</filter>
</defs>
</svg>
